<?xml version="1.0" standalone="no"?>
<!DOCTYPE svg PUBLIC "-//W3C//DTD SVG 20010904//EN"
 "http://www.w3.org/TR/2001/REC-SVG-20010904/DTD/svg10.dtd">
<svg version="1.0" xmlns="http://www.w3.org/2000/svg"
 width="260.000000pt" height="260.000000pt" viewBox="0 0 260.000000 260.000000"
 preserveAspectRatio="xMidYMid meet">
<metadata>
Created by potrace 1.11, written by Peter Selinger 2001-2013
</metadata>
<g transform="translate(0.000000,260.000000) scale(0.100000,-0.100000)"
fill="#000000" stroke="none">
<path d="M0 1300 l0 -1300 1300 0 1300 0 0 1300 0 1300 -1300 0 -1300 0 0
-1300z m1950 862 c38 -118 38 -132 -4 -159 l-34 -22 -48 46 c-27 24 -79 66
-116 92 l-67 48 52 50 c29 27 72 66 97 87 l44 37 23 -43 c12 -24 36 -85 53
-136z m-531 59 c159 -81 206 -209 205 -551 0 -193 -12 -298 -29 -255 -71 182
-184 355 -325 495 -116 116 -199 170 -348 226 l-84 32 58 22 c33 12 84 28 114
35 30 8 64 16 75 19 11 3 81 4 155 2 116 -3 141 -6 179 -25z m219 -77 c219
-120 375 -316 448 -561 31 -107 30 -223 -4 -288 -17 -34 -160 -185 -175 -185
-2 0 -5 69 -5 153 0 210 -36 399 -111 578 -34 81 -121 216 -185 287 -26 28
-44 52 -40 52 4 0 37 -16 72 -36z m-756 -35 c34 -11 79 -29 100 -40 l39 -20
-56 -51 c-153 -139 -241 -358 -252 -624 -9 -206 18 -338 105 -524 22 -47 39
-87 37 -88 -2 -2 -34 11 -70 28 -215 102 -345 409 -314 738 22 234 135 488
251 566 61 42 77 43 160 15z m1362 -36 c14 -68 18 -242 7 -308 -14 -82 -52
-166 -88 -195 l-26 -20 -29 88 c-16 48 -42 111 -58 140 -27 51 -28 57 -23 144
l6 91 91 43 c50 24 96 44 102 44 7 0 14 -12 18 -27z m-513 -198 c47 -94 91
-234 115 -360 19 -96 25 -326 11 -405 -7 -41 -13 -48 -66 -83 -82 -53 -184
-103 -261 -128 -36 -12 -71 -24 -79 -27 -9 -3 -3 12 13 39 77 124 143 300 179
474 37 185 27 512 -19 653 -14 39 71 -89 107 -163z m-575 92 c60 -44 155 -144
214 -223 l30 -42 -63 -11 c-163 -28 -310 -107 -499 -268 l-88 -74 0 53 c0 29
9 94 19 143 38 184 124 345 233 436 67 55 59 56 154 -14z m834 -32 c0 -25 -2
-45 -4 -45 -3 0 -15 14 -27 31 -22 31 -22 32 -4 45 30 22 35 17 35 -31z
m-1474 -76 c-64 -146 -91 -298 -83 -476 8 -183 48 -317 133 -445 61 -92 130
-149 239 -199 89 -41 92 -44 135 -112 23 -38 62 -89 85 -113 23 -24 36 -44 30
-44 -6 0 -40 9 -76 21 -293 96 -516 337 -601 650 -19 70 -23 107 -22 229 1
165 19 252 78 377 34 71 97 175 103 169 2 -2 -8 -27 -21 -57z m954 -269 c60
-102 122 -263 114 -294 l-6 -26 -53 48 c-97 86 -247 162 -394 200 -74 19 -74
19 -50 35 82 54 230 105 306 106 42 1 42 0 83 -69z m-344 -109 c154 -43 288
-114 394 -209 l45 -40 -20 -58 c-17 -50 -25 -59 -55 -70 -123 -44 -315 25
-433 156 -24 27 -61 81 -82 121 l-38 73 29 23 c35 28 68 29 160 4z m-106 -238
c121 -137 322 -220 448 -184 17 5 32 7 32 4 0 -12 -84 -163 -106 -190 l-22
-28 -159 1 c-137 0 -166 3 -217 22 -69 26 -140 69 -178 109 -32 34 -57 125
-64 237 l-6 81 78 67 77 68 46 -79 c25 -44 57 -92 71 -108z m1085 -86 c-37
-183 -116 -330 -244 -457 -103 -102 -197 -161 -334 -209 -95 -33 -111 -35
-222 -36 -107 0 -125 3 -168 24 -27 13 -62 38 -79 55 -43 42 -126 172 -181
282 l-46 91 77 -39 c250 -126 599 -73 919 139 109 73 221 169 258 223 38 55
43 38 20 -73z m-1513 -467 c38 -39 87 -82 108 -96 l38 -26 -17 -39 c-10 -22
-21 -42 -24 -46 -10 -9 -184 17 -255 39 -48 15 -62 23 -58 34 9 22 127 204
133 204 3 0 36 -32 75 -70z m1394 -63 c80 -113 127 -199 114 -207 -39 -24
-174 -45 -291 -45 -120 0 -128 1 -185 30 -32 17 -59 36 -59 43 0 6 34 28 75
47 86 42 178 106 235 164 22 22 45 41 50 41 6 0 33 -33 61 -73z m-1173 -106
l28 -18 -23 -7 c-57 -15 -75 -7 -62 28 8 21 23 20 57 -3z m155 -65 c39 -13
105 -30 146 -37 42 -6 76 -15 76 -18 0 -4 -14 -23 -31 -44 -62 -75 -201 -124
-383 -134 l-109 -6 7 36 c4 20 17 72 29 114 l22 78 50 6 c28 4 61 12 75 17 35
15 39 15 118 -12z"/>
</g>
</svg>
